<?xml version="1.0" standalone="no"?>
<!DOCTYPE svg PUBLIC "-//W3C//DTD SVG 20010904//EN"
 "http://www.w3.org/TR/2001/REC-SVG-20010904/DTD/svg10.dtd">
<svg version="1.0" xmlns="http://www.w3.org/2000/svg"
 width="349.000000pt" height="349.000000pt" viewBox="0 0 349.000000 349.000000"
 preserveAspectRatio="xMidYMid meet">
<metadata>
Created by potrace 1.11, written by Peter Selinger 2001-2013
</metadata>
<g transform="translate(0.000000,349.000000) scale(0.100000,-0.100000)"
fill="#000000" stroke="none">
<path d="M170 2371 c-58 -24 -116 -80 -143 -139 -18 -40 -21 -69 -23 -187 -2
-135 2 -183 14 -171 3 3 7 21 9 38 5 52 50 134 98 181 142 137 380 210 850
261 126 14 393 21 770 21 360 0 728 -10 744 -19 3 -2 44 -7 91 -10 184 -15
442 -69 566 -120 182 -74 295 -186 311 -306 6 -42 22 -65 24 -33 7 129 0 286
-15 329 -18 57 -71 115 -130 147 l-41 22 -1540 2 c-1470 2 -1542 1 -1585 -16z"/>
<path d="M536 2208 c-79 -10 -155 -47 -217 -104 -86 -81 -134 -188 -143 -316
-16 -233 112 -433 314 -488 33 -9 190 -13 595 -13 543 0 551 0 617 22 104 35
176 106 213 211 l13 37 -123 0 -123 -1 7 -25 c19 -68 -26 -140 -87 -142 -15 0
-34 -2 -42 -3 -8 -2 -73 -6 -145 -10 -169 -8 -273 -14 -360 -21 -176 -12 -348
-20 -440 -20 -88 0 -107 4 -159 28 -76 35 -136 84 -175 143 -156 236 -57 542
205 635 48 18 79 21 169 19 61 -1 128 -3 150 -5 22 -2 103 -6 180 -10 77 -3
158 -8 180 -10 22 -2 103 -6 180 -9 264 -12 295 -19 329 -77 9 -15 17 -46 19
-68 l2 -41 113 0 c128 0 127 0 91 80 -38 85 -122 151 -229 180 -51 14 -1031
21 -1134 8z"/>
<path d="M2580 2186 c0 -7 -16 -45 -35 -83 -52 -104 -129 -175 -231 -216 -49
-19 -91 -25 -239 -32 -165 -8 -265 -11 -1025 -30 -96 -3 -207 -5 -245 -5 -64
0 -71 -2 -72 -20 -1 -13 5 -20 15 -20 9 -1 251 0 537 0 894 2 1268 8 1336 20
190 34 360 192 385 358 l7 42 -217 0 c-176 0 -216 -3 -216 -14z"/>
<path d="M3100 2169 c-1 -92 -28 -202 -65 -265 -55 -94 -167 -136 -392 -147
-68 -3 -35 -14 62 -21 154 -10 252 -46 313 -115 33 -38 61 -122 76 -225 l13
-91 3 70 c4 156 1 817 -4 823 -3 3 -6 -10 -6 -29z"/>
<path d="M2550 1750 c0 -5 5 -10 11 -10 5 0 7 5 4 10 -3 6 -8 10 -11 10 -2 0
-4 -4 -4 -10z"/>
<path d="M733 1701 c1 -18 8 -21 47 -21 25 -1 115 -3 200 -5 85 -2 270 -6 410
-10 140 -3 305 -7 365 -10 61 -2 182 -7 270 -10 217 -8 255 -14 336 -57 97
-51 183 -154 209 -250 l11 -38 216 0 216 0 -7 43 c-16 106 -111 234 -219 296
-51 29 -129 55 -197 65 -19 3 -445 9 -947 12 l-912 6 2 -21z"/>
<path d="M5 1473 c1 -142 4 -163 24 -205 26 -54 84 -110 138 -134 35 -16 158
-17 1553 -18 889 -1 1534 2 1560 7 47 10 112 49 144 88 46 55 58 105 58 238 0
166 -1 181 -10 181 -4 0 -9 -15 -10 -32 -7 -89 -93 -201 -204 -266 -102 -60
-345 -132 -528 -156 -287 -38 -483 -48 -980 -48 -413 0 -633 7 -825 28 -27 3
-63 7 -80 9 -229 25 -458 85 -590 153 -73 39 -172 127 -197 177 -8 17 -21 54
-28 83 -6 28 -15 52 -19 52 -4 0 -7 -71 -6 -157z"/>
</g>
</svg>
